<svg width="592" height="597" viewBox="0 0 592 597" fill="none" xmlns="http://www.w3.org/2000/svg">
<path fill-rule="evenodd" clip-rule="evenodd" d="M281 12.0001C376.335 -51.2891 371.047 161.113 411 177C460.662 196.748 535.008 152.758 569 194C646 307 496.172 309.785 504 360C513.808 422.913 593.416 453.194 569 512C545.599 568.361 472.023 596.421 411 597C349.977 597.579 287.48 517.19 231 517C174.846 516.811 187.626 581.555 131.7 576.501C77.8699 571.637 38.1408 541.889 26.9999 489C14.9085 431.599 85.3702 463.496 97 406C105.438 364.284 -36 304 8.99997 170.187C69 86 174.302 198.789 211 177C248.103 154.971 162 91 281 12.0001Z" fill="#750041"/>
</svg>
