<svg width="592" height="610" viewBox="0 0 592 610" fill="none" xmlns="http://www.w3.org/2000/svg">
<path fill-rule="evenodd" clip-rule="evenodd" d="M267.13 6.85842C344.083 -38.2511 372.113 153.326 412.041 169.252C461.673 189.049 535.973 144.951 569.943 186.294C646.896 299.568 497.16 302.36 504.983 352.697C514.785 415.763 600.341 420.056 575.94 479.004C552.553 535.502 473.027 589.694 412.041 590.274C351.055 590.854 288.597 510.27 232.152 510.079C176.033 509.89 188.805 614.888 132.913 609.822C79.1159 604.947 39.4112 575.126 28.2772 522.108C16.1933 464.568 74.619 416.348 86.2416 358.712C94.6743 316.894 -34.9723 283.138 10 149C40.8447 57 178.487 184.265 215.162 162.423C252.242 140.341 143.886 79.104 267.13 6.85842Z" fill="#750041"/>
</svg>
