<svg width="539" height="538" viewBox="0 0 539 538" fill="none" xmlns="http://www.w3.org/2000/svg">
<path fill-rule="evenodd" clip-rule="evenodd" d="M261.696 107.647V206.389H277.025H278.418H371.782V190.369H278.418V106.173C279.991 106.123 281.57 106.098 283.156 106.098C361.29 106.098 424.63 166.779 424.63 241.633C424.63 249.273 423.97 256.766 422.702 264.061H264.762V280.08H418.857C402.035 334.657 350.316 374.893 288.451 377.074V333.213H271.73V376.731C252.123 375.23 233.643 369.899 217.105 361.519V307.314H200.383V351.56C175.32 334.208 156.426 309.183 147.456 280.08H193.973V264.061H143.611C142.343 256.766 141.683 249.273 141.683 241.633C141.683 197.342 163.859 158.013 198.154 133.28V205.054H214.875V122.901C229.155 115.347 244.943 110.09 261.696 107.647ZM261.696 69.2894C190.413 77.3495 131.804 125.061 110.561 188.767H0V204.787H106.094C103.414 216.662 102.003 228.99 102.003 241.633C102.003 249.233 102.513 256.719 103.502 264.061H51.5589V280.08H106.464C118.41 330.684 153.435 372.902 200.383 396.046V491.809H217.105V403.284C234.2 409.7 252.561 413.698 271.73 414.841V538H288.451V415.108C372.354 412.801 441.964 355.838 459.848 280.08H539V264.061H462.81C463.799 256.719 464.309 249.233 464.309 241.633C464.309 145.785 383.204 68.0844 283.156 68.0844C281.572 68.0844 279.992 68.1039 278.418 68.1426V0H261.696V69.2894Z" fill="#F0048C"/>
</svg>
